<svg width="227" height="222" viewBox="0 0 227 222" fill="none"
    xmlns="http://www.w3.org/2000/svg">
    <g filter="url(#filter0_d_206_890)">
        <path fill-rule="evenodd" clip-rule="evenodd" d="M60.5004 11.634C26.4364 16.876 3.38343 48.505 9.36343 81.795C11.9894 96.409 18.5304 107.25 33.8744 122.419L41.8844 130.338L50.9574 121.703C61.0954 112.056 65.1504 110.155 71.7854 111.942C76.4934 113.21 81.7494 118.494 82.6164 122.832C83.1174 125.336 83.6534 125.954 84.8864 125.451C92.6824 122.268 97.9774 123.265 103.25 128.909C106.512 132.4 107 133.551 107 137.754V142.585L111.381 143.757C121.638 146.5 126.313 155.554 122.478 165.25C121.932 166.63 122.306 167 124.245 167C127.674 167 132.935 170.838 135.21 175C136.591 177.526 137.006 179.841 136.702 183.319C136.335 187.514 136.583 188.336 138.617 189.669C146.275 194.686 155.972 187.452 152.852 179.051C152.331 177.648 142.372 166.942 130.72 155.26L109.536 134.019L111.757 131.798L113.978 129.578L135.833 151.289C157.171 172.486 157.786 173 161.788 173C167.729 173 171.455 169.567 171.455 164.092C171.455 160.062 170.991 159.508 150.227 138.727C138.552 127.043 129 116.789 129 115.941C129 114.212 130.892 112 132.372 112C132.907 112 142.414 121 153.5 132C172.506 150.859 173.87 152 177.405 152C184.499 152 189.187 144.345 185.715 138.432C185.047 137.294 169.075 121.135 150.221 102.522L115.943 68.679L98.7084 85.738C79.7264 104.524 77.0644 106.171 69.1354 104.036C63.6694 102.564 56.4614 94.687 55.5284 89.165C54.2744 81.746 56.8234 78.389 84.0554 51.604C97.7754 38.11 109 26.819 109 26.514C109 25.011 94.3664 16.773 87.7514 14.552C80.3254 12.059 67.0044 10.633 60.5004 11.634ZM146.5 12.022C139.837 13.359 131.533 16.852 125.354 20.916C122.028 23.104 106.809 37.525 90.1084 54.315L60.7164 83.863L61.3284 87.635C62.2474 93.297 67.8024 98.455 72.9824 98.455C76.8294 98.455 77.6714 97.763 95.7984 79.727C106.15 69.427 115.265 61 116.055 61C116.844 61 132.812 76.318 151.54 95.04L185.592 129.081L197.124 117.29C206.336 107.871 209.397 103.992 212.341 98C221.005 80.366 221.01 61.678 212.354 44C207.777 34.652 196.451 22.979 187.314 18.192C175.54 12.023 158.972 9.51899 146.5 12.022ZM64.5004 117.924C63.4004 118.404 57.8884 123.502 52.2504 129.253C43.5504 138.129 42.0004 140.195 42.0004 142.921C42.0004 144.687 42.4864 147.04 43.0804 148.15C44.4694 150.745 50.5104 153.277 53.3234 152.444C54.5214 152.089 60.3374 147.015 66.2504 141.167C76.0764 131.448 77.0004 130.215 77.0004 126.823C77.0004 120.29 70.1904 115.441 64.5004 117.924ZM89.0004 130.085C87.6254 130.636 80.7634 136.798 73.7514 143.778C64.3594 153.127 60.8474 157.296 60.4134 159.613C59.1964 166.098 65.4264 172.114 71.7224 170.534C75.1234 169.68 98.7064 146.728 100.526 142.5C103.793 134.913 96.5154 127.074 89.0004 130.085ZM103.5 150.881C98.4604 154.028 79.2034 174.342 78.4634 177.293C76.8804 183.597 82.9104 189.802 89.4304 188.579C93.9864 187.724 118 163.475 118 159.729C118 155.44 116.261 152.186 113.093 150.548C109.189 148.529 107.153 148.6 103.5 150.881ZM119.437 172.755C118.303 172.939 112.762 177.718 107.125 183.374C98.9824 191.545 96.8594 194.26 96.7934 196.584C96.6604 201.239 97.9264 203.91 101.021 205.511C106.845 208.522 108.558 207.72 119.683 196.773C125.399 191.148 130.333 185.523 130.646 184.273C132.335 177.546 126.548 171.601 119.437 172.755ZM125.569 199.917C120.825 204.722 119.968 206.05 121.286 206.556C125.982 208.358 132.384 202.624 131.825 197.116L131.5 193.911L125.569 199.917Z" fill="white"/>
    </g>
    <defs>
        <filter id="filter0_d_206_890" x="8.41895" y="11.0615" width="210.424" height="198.962" filterUnits="userSpaceOnUse" color-interpolation-filters="sRGB">
            <feFlood flood-opacity="0" result="BackgroundImageFix"/>
            <feColorMatrix in="SourceAlpha" type="matrix" values="0 0 0 0 0 0 0 0 0 0 0 0 0 0 0 0 0 0 127 0" result="hardAlpha"/>
            <feOffset dy="3"/>
            <feComposite in2="hardAlpha" operator="out"/>
            <feColorMatrix type="matrix" values="0 0 0 0 0 0 0 0 0 0 0 0 0 0 0 0 0 0 0.24 0"/>
            <feBlend mode="normal" in2="BackgroundImageFix" result="effect1_dropShadow_206_890"/>
            <feBlend mode="normal" in="SourceGraphic" in2="effect1_dropShadow_206_890" result="shape"/>
        </filter>
    </defs>
</svg>
