<svg width="218" height="179" viewBox="0 0 218 179" fill="none"
    xmlns="http://www.w3.org/2000/svg">
    <g filter="url(#filter0_d_205_638)">
        <path fill-rule="evenodd" clip-rule="evenodd" d="M108.204 1.06751C103.931 2.21457 102.192 4.08121 103.124 6.52138C103.618 7.81449 104.409 8.00329 107.536 7.57225C115.27 6.50713 118.1 3.99393 115.035 0.913447C113.794 -0.333354 113.391 -0.324449 108.204 1.06751ZM82.5093 7.68713C74.5642 10.2734 72.407 12.0723 74.3825 14.4644C75.9777 16.396 77.362 16.2633 86.0056 13.3494C92.235 11.2503 93.5493 10.4782 93.7974 8.77452C94.0837 6.81348 92.7233 5.18819 90.84 5.23984C90.3526 5.2532 86.6038 6.35484 82.5093 7.68713ZM54.1336 19.4284C46.8416 23.3176 45.8109 24.3827 47.064 26.7365C48.2923 29.043 49.5978 28.7875 58.0127 24.5938C65.7363 20.7447 67.2482 19.2289 65.489 17.0978C63.8654 15.1323 61.1384 15.6925 54.1336 19.4284ZM30.1323 35.0571C24.058 40.2331 22.476 42.496 23.3437 44.7696C24.4382 47.6355 27.8928 46.1278 34.3987 39.9436C40.1424 34.4862 40.7699 33.5752 39.9067 31.9534C38.3912 29.1081 36.3564 29.7546 30.1323 35.0571ZM14.6443 52.9398C12.2709 55.3247 6.96765 66.6581 7.26011 68.7216C7.42584 69.8918 8.2722 70.7512 9.42078 70.9159C10.9752 71.1386 12.0308 69.8437 15.4029 63.5767C19.7535 55.4912 20.3561 52.9104 18.0953 52.0385C16.2165 51.3136 16.2785 51.2975 14.6443 52.9398ZM198.519 69.8856C192.426 70.5829 158.53 75.2575 123.196 80.2741C67.0063 88.2509 58.9131 89.5903 58.6516 90.9511C58.4567 91.9691 62.6256 96.9545 70.6939 105.352L83.0349 118.195L84.1064 133.16C85.3613 150.678 85.9223 154.67 86.8812 152.918C87.2525 152.241 88.8522 146.748 90.4368 140.712C92.5788 132.552 93.7957 129.427 95.1809 128.532C96.2054 127.87 113.529 119.438 133.678 109.795C169.071 92.8561 173.382 91.2112 171.678 95.2989C171.409 95.9437 155.418 105.489 136.143 116.51C116.868 127.53 101.183 136.833 101.286 137.182C101.811 138.947 138.644 176.227 139.637 175.999C141.201 175.639 217.977 73.6838 217.999 71.9365C218.046 68.1106 215.948 67.8898 198.519 69.8856ZM3.26226 80.4077C1.93999 81.7364 0 90.871 0 95.7673C0 101.038 5.44243 102 5.98392 96.8262C6.10711 95.6516 6.66101 91.7927 7.21491 88.2509C8.00722 83.1791 7.98417 81.5235 7.10413 80.4584C5.7083 78.7681 4.90448 78.7574 3.26226 80.4077ZM1.47737 109.979C0.397037 111.065 0.864975 115.363 2.73672 121.537C4.92043 128.736 6.13015 130.294 8.8651 129.422C10.5295 128.891 10.7519 128.357 10.2875 125.991C9.3614 121.264 6.65392 111.675 5.91302 110.498C5.16592 109.311 2.45756 108.993 1.47737 109.979ZM13.5152 136.692C10.3779 137.964 13.1935 143.359 19.7234 148.583C24.6376 152.515 27.9202 153.147 28.8083 150.334C29.2576 148.911 28.0213 147.246 22.8855 142.357C16.4939 136.271 15.7149 135.8 13.5152 136.692ZM97.4869 142.521C97.4869 142.839 96.5182 146.734 95.3351 151.178C94.1519 155.622 93.5431 159.257 93.9827 159.257C94.7094 159.257 108.299 154.022 108.763 153.564C108.871 153.457 106.379 150.798 103.224 147.656C100.068 144.514 97.4869 142.203 97.4869 142.521ZM37.2577 154.316C35.0962 156.934 36.5877 158.748 42.5397 160.741C52.1989 163.974 54.6254 164.197 55.8183 161.956C57.1893 159.383 55.7651 157.708 51.5351 156.921C49.7555 156.59 46.1441 155.577 43.5084 154.672C37.7939 152.705 38.5525 152.749 37.2577 154.316ZM68.6839 159.128C66.5995 159.592 66.0252 160.198 66.0252 161.938C66.0252 164.089 66.2086 164.155 72.2289 164.155H78.4326V161.484C78.4326 158.983 78.2048 158.803 74.8876 158.675C72.9379 158.599 70.1462 158.803 68.6839 159.128Z" fill="white"/>
    </g>
    <defs>
        <filter id="filter0_d_205_638" x="0" y="0" width="218" height="179" filterUnits="userSpaceOnUse" color-interpolation-filters="sRGB">
            <feFlood flood-opacity="0" result="BackgroundImageFix"/>
            <feColorMatrix in="SourceAlpha" type="matrix" values="0 0 0 0 0 0 0 0 0 0 0 0 0 0 0 0 0 0 127 0" result="hardAlpha"/>
            <feOffset dy="3"/>
            <feComposite in2="hardAlpha" operator="out"/>
            <feColorMatrix type="matrix" values="0 0 0 0 0 0 0 0 0 0 0 0 0 0 0 0 0 0 0.24 0"/>
            <feBlend mode="normal" in2="BackgroundImageFix" result="effect1_dropShadow_205_638"/>
            <feBlend mode="normal" in="SourceGraphic" in2="effect1_dropShadow_205_638" result="shape"/>
        </filter>
    </defs>
</svg>
